<?xml version="1.0" encoding="UTF-8"?>
<svg
  xmlns="http://www.w3.org/2000/svg"
  viewBox="0 0 732 220"
  width="732"
  height="220"
  role="img"
  aria-labelledby="soulcraft-logo-title soulcraft-logo-desc"
>
  <title id="soulcraft-logo-title">Soulcraft Agency</title>
  <desc id="soulcraft-logo-desc">Soulcraft Agency logo. An AI-native marketing agency that builds agentic marketing systems. Features the Soulcraft heartmark icon and wordmark in off-white and warm gold on a dark background.</desc>

  <!-- Background -->
  <rect width="732" height="220" fill="#0a0a0a"/>

  <!-- Heartmark icon: source viewBox 0 0 200 200, rendered 180x180 at scale 0.9, positioned at (20,20) -->
  <g transform="translate(20,20) scale(0.9)">
    <rect x="20" y="20" width="160" height="160" rx="4"
      stroke="#c8a97e" stroke-width="3" stroke-linecap="round" fill="none"/>
    <path
      d="M100 152 C 100 152, 48 116, 46 84 C 44 62, 58 50, 74 50
         C 86 50, 94 58, 100 68 C 106 58, 114 50, 126 50
         C 142 50, 156 62, 154 84 C 152 116, 100 152, 100 152Z"
      stroke="#c8a97e" stroke-width="3.2"
      stroke-linecap="round" stroke-linejoin="round" fill="none"/>
    <circle cx="100" cy="96" r="4.5" fill="#c8a97e"/>
  </g>

  <!-- Wordmark: Playfair Display Regular, converted to outlines (no font dependency). -->
  <!-- "Soul" in off-white (#f0f0f0) -->
  <path d="M250.768 62.968Q257.168 62.968 260.496 64.44Q263.824 65.91199999999999 266.384 67.704Q267.92 68.6 268.88 69.048Q269.84000000000003 69.496 270.736 69.496Q272.016 69.496 272.592 68.088Q273.168 66.67999999999999 273.552 63.864000000000004H276.496Q276.368 66.03999999999999 276.176 69.048Q275.984 72.056 275.91999999999996 76.984Q275.856 81.91199999999999 275.856 89.976H272.912Q272.528 83.832 270.22400000000005 78.19999999999999Q267.92 72.568 263.504 68.984Q259.088 65.39999999999999 251.92000000000002 65.39999999999999Q245.136 65.39999999999999 240.72 69.496Q236.304 73.592 236.304 80.248Q236.304 86.008 239.248 89.912Q242.192 93.816 247.12 96.952Q252.048 100.088 257.808 103.672Q264.464 107.768 269.648 111.8Q274.832 115.832 277.84000000000003 120.696Q280.848 125.56 280.848 132.472Q280.848 140.664 277.13599999999997 146.04Q273.424 151.416 267.28 154.10399999999998Q261.136 156.792 253.712 156.792Q246.928 156.792 242.95999999999998 155.256Q238.992 153.72 236.176 152.056Q233.36 150.264 231.824 150.264Q230.544 150.264 229.96800000000002 151.67200000000003Q229.392 153.08 229.008 155.896H226.064Q226.32 153.208 226.38400000000001 149.56Q226.448 145.912 226.512 140.024Q226.576 134.136 226.576 125.176H229.52Q230.032 132.856 232.4 139.512Q234.768 146.168 239.696 150.2Q244.624 154.232 252.816 154.232Q257.04 154.232 260.81600000000003 152.50400000000002Q264.592 150.776 267.024 147.0Q269.456 143.224 269.456 137.208Q269.456 131.96 266.96000000000004 128.056Q264.464 124.152 259.984 120.75999999999999Q255.504 117.368 249.488 113.78399999999999Q243.472 110.072 238.224 106.232Q232.976 102.392 229.84 97.336Q226.704 92.28 226.704 85.112Q226.704 77.56 230.096 72.632Q233.488 67.704 238.99200000000002 65.336Q244.496 62.968 250.768 62.968Z" fill="#f0f0f0"/>
  <path d="M317.35360000000003 87.288Q325.54560000000004 87.288 332.07360000000006 90.87199999999999Q338.6016 94.45599999999999 342.5056 102.136Q346.4096 109.816 346.4096 122.104Q346.4096 134.392 342.5056 142.00799999999998Q338.6016 149.624 332.07360000000006 153.208Q325.54560000000004 156.792 317.35360000000003 156.792Q309.2896 156.792 302.6976 153.208Q296.10560000000004 149.624 292.20160000000004 142.00799999999998Q288.29760000000005 134.392 288.29760000000005 122.104Q288.29760000000005 109.816 292.20160000000004 102.136Q296.10560000000004 94.45599999999999 302.6976 90.87199999999999Q309.2896 87.288 317.35360000000003 87.288ZM317.35360000000003 89.848Q310.05760000000004 89.848 305.38560000000007 97.4Q300.71360000000004 104.952 300.71360000000004 122.104Q300.71360000000004 139.256 305.38560000000007 146.744Q310.05760000000004 154.232 317.35360000000003 154.232Q324.6496 154.232 329.3216 146.744Q333.9936 139.256 333.9936 122.104Q333.9936 104.952 329.3216 97.4Q324.6496 89.848 317.35360000000003 89.848Z" fill="#f0f0f0"/>
  <path d="M409.33952000000005 87.672V141.176Q409.33952000000005 146.936 411.4515200000001 149.688Q413.56352000000004 152.44 419.06752000000006 152.44V155.128Q415.09952000000004 154.744 411.13152 154.744Q407.41952000000003 154.744 404.02752000000004 155.128Q400.63552000000004 155.512 397.81952 156.536V141.432Q394.61952 149.752 388.79552 153.272Q382.97152000000006 156.792 376.82752000000005 156.792Q372.34752000000003 156.792 369.01952000000006 155.512Q365.69152 154.232 363.51552000000004 151.928Q361.08352 149.368 360.18752000000006 145.272Q359.29152000000005 141.176 359.29152000000005 135.16V103.032Q359.29152000000005 97.27199999999999 357.24352000000005 94.52Q355.19552000000004 91.768 349.56352000000004 91.768V89.08Q353.65952000000004 89.464 357.49952 89.464Q361.21152000000006 89.464 364.60352000000006 89.01599999999999Q367.99552000000006 88.568 370.81152000000003 87.672V137.976Q370.81152000000003 141.944 371.32352000000003 145.272Q371.83552000000003 148.6 373.88352000000003 150.648Q375.93152000000003 152.696 380.53952000000004 152.696Q385.53152000000006 152.696 389.43552000000005 149.624Q393.33952000000005 146.552 395.57952 141.304Q397.81952 136.056 397.81952 129.528V103.032Q397.81952 97.27199999999999 395.77152 94.52Q393.72352 91.768 388.09152000000006 91.768V89.08Q392.18752000000006 89.464 396.02752000000004 89.464Q399.73952 89.464 403.13152 89.01599999999999Q406.52352 88.568 409.33952000000005 87.672Z" fill="#f0f0f0"/>
  <path d="M440.74176000000006 54.647999999999996V143.096Q440.74176000000006 148.472 442.98176 150.392Q445.22176 152.312 450.46976000000006 152.312V155.0Q448.29376 154.872 443.87776 154.68Q439.46176 154.488 434.98176 154.488Q430.62976000000003 154.488 426.14976 154.68Q421.66976000000005 154.872 419.49376 155.0V152.312Q424.74176000000006 152.312 426.98176 150.392Q429.22176 148.472 429.22176 143.096V70.008Q429.22176 64.248 427.17376 61.496Q425.12576 58.744 419.49376 58.744V56.056Q423.58976 56.44 427.42976000000004 56.44Q431.14176000000003 56.44 434.53376000000003 55.992Q437.92576 55.544 440.74176000000006 54.647999999999996Z" fill="#f0f0f0"/>
  <!-- "craft" in warm gold (#c8a97e) -->
  <path d="M486.4352 87.288Q490.5312 87.288 494.37120000000004 88.312Q498.2112 89.336 501.2832 91.384Q504.22720000000004 93.304 505.76320000000004 95.8Q507.29920000000004 98.29599999999999 507.29920000000004 101.24000000000001Q507.29920000000004 104.696 505.3792 106.55199999999999Q503.4592 108.408 500.51520000000005 108.408Q497.6992 108.408 495.58720000000005 106.744Q493.47520000000003 105.08 493.47520000000003 102.008Q493.47520000000003 99.064 495.0752 97.27199999999999Q496.6752 95.47999999999999 498.8512 94.96799999999999Q497.57120000000003 92.664 494.3072 91.128Q491.0432 89.592 487.3312 89.592Q484.13120000000004 89.592 480.9312 91.128Q477.7312 92.664 475.0432 96.184Q472.3552 99.70400000000001 470.6912 105.784Q469.0272 111.864 469.0272 120.952Q469.0272 132.216 471.5872 138.872Q474.1472 145.528 478.3072 148.40800000000002Q482.46720000000005 151.288 487.4592 151.288Q490.78720000000004 151.288 494.2432 150.008Q497.6992 148.728 500.7712 145.848Q503.8432 142.968 506.0192 138.10399999999998L508.45120000000003 139.0Q507.1712 143.096 504.22720000000004 147.256Q501.2832 151.416 496.54720000000003 154.10399999999998Q491.81120000000004 156.792 484.8992 156.792Q476.96320000000003 156.792 470.56320000000005 152.696Q464.1632 148.6 460.3872 140.98399999999998Q456.6112 133.368 456.6112 122.872Q456.6112 112.376 460.3872 104.376Q464.1632 96.376 470.9472 91.832Q477.7312 87.288 486.4352 87.288Z" fill="#c8a97e"/>
  <path d="M552.09664 87.288Q555.55264 87.288 558.17664 88.696Q560.80064 90.104 562.27264 92.344Q563.74464 94.584 563.74464 97.4Q563.74464 100.6 561.76064 103.032Q559.77664 105.464 556.44864 105.464Q553.76064 105.464 551.71264 103.73599999999999Q549.66464 102.008 549.66464 98.80799999999999Q549.66464 96.376 551.00864 94.648Q552.35264 92.92 554.01664 91.896Q553.12064 90.616 551.32864 90.616Q547.36064 90.616 544.03264 92.98400000000001Q540.70464 95.352 538.4006400000001 99.064Q536.09664 102.776 534.81664 106.936Q533.53664 111.096 533.53664 114.68V141.816Q533.53664 148.088 537.18464 150.2Q540.83264 152.312 547.10464 152.312V155.0Q544.1606400000001 154.872 538.7846400000001 154.68Q533.40864 154.488 527.39264 154.488Q523.04064 154.488 518.75264 154.68Q514.46464 154.872 512.28864 155.0V152.312Q517.53664 152.312 519.77664 150.392Q522.01664 148.472 522.01664 143.096V103.032Q522.01664 97.27199999999999 519.96864 94.52Q517.92064 91.768 512.28864 91.768V89.08Q516.38464 89.464 520.22464 89.464Q523.93664 89.464 527.32864 89.01599999999999Q530.72064 88.568 533.53664 87.672V103.672Q534.94464 99.96000000000001 537.56864 96.184Q540.19264 92.408 543.90464 89.848Q547.61664 87.288 552.09664 87.288Z" fill="#c8a97e"/>
  <path d="M583.43744 155.896Q578.18944 155.896 574.34944 153.91199999999998Q570.50944 151.928 568.52544 148.344Q566.54144 144.76 566.54144 140.024Q566.54144 134.392 569.16544 130.808Q571.78944 127.224 575.88544 125.048Q579.98144 122.872 584.52544 121.4Q589.06944 119.928 593.16544 118.584Q597.26144 117.24000000000001 599.88544 115.44800000000001Q602.50944 113.656 602.50944 110.71199999999999V102.776Q602.50944 97.4 600.90944 94.584Q599.30944 91.768 596.62144 90.80799999999999Q593.93344 89.848 590.60544 89.848Q587.40544 89.848 583.75744 90.744Q580.10944 91.64 577.93344 94.45599999999999Q580.36544 94.96799999999999 582.15744 97.01599999999999Q583.94944 99.064 583.94944 102.264Q583.94944 105.464 581.90144 107.32Q579.85344 109.176 576.65344 109.176Q572.9414400000001 109.176 571.21344 106.80799999999999Q569.48544 104.44 569.48544 101.49600000000001Q569.48544 98.168 571.14944 96.12Q572.81344 94.072 575.37344 92.28Q578.31744 90.232 582.9894400000001 88.75999999999999Q587.66144 87.288 593.54944 87.288Q598.79744 87.288 602.50944 88.50399999999999Q606.22144 89.72 608.65344 92.024Q611.98144 95.096 613.00544 99.512Q614.02944 103.928 614.02944 110.072V145.656Q614.02944 148.856 614.9894400000001 150.264Q615.94944 151.672 617.99744 151.672Q619.40544 151.672 620.68544 151.03199999999998Q621.9654400000001 150.392 623.75744 148.984L625.16544 151.16Q622.47744 153.208 620.04544 154.552Q617.61344 155.896 613.51744 155.896Q609.80544 155.896 607.3734400000001 154.61599999999999Q604.9414400000001 153.336 603.72544 150.84Q602.50944 148.344 602.50944 144.504Q599.05344 150.264 594.25344 153.07999999999998Q589.45344 155.896 583.43744 155.896ZM588.04544 150.776Q592.26944 150.776 595.9174399999999 148.344Q599.56544 145.912 602.50944 141.048V115.96000000000001Q600.97344 118.136 598.02944 119.608Q595.0854400000001 121.08 591.62944 122.55199999999999Q588.17344 124.024 585.0374400000001 126.00800000000001Q581.90144 127.992 579.85344 131.192Q577.80544 134.392 577.80544 139.512Q577.80544 144.632 580.55744 147.704Q583.30944 150.776 588.04544 150.776Z" fill="#c8a97e"/>
  <path d="M656.15936 54.903999999999996Q659.74336 54.903999999999996 662.4953600000001 55.864Q665.2473600000001 56.824 667.2953600000001 58.36Q669.21536 59.896 670.23936 61.944Q671.26336 63.992000000000004 671.26336 66.29599999999999Q671.26336 69.24 669.3433600000001 71.16Q667.42336 73.08 664.47936 73.08Q661.66336 73.08 659.55136 71.22399999999999Q657.4393600000001 69.368 657.4393600000001 66.16799999999999Q657.4393600000001 63.480000000000004 658.9113600000001 61.816Q660.38336 60.152 662.81536 59.64Q662.43136 58.488 660.83136 57.656Q659.23136 56.824 656.54336 56.824Q653.59936 56.824 651.4873600000001 58.104Q649.37536 59.384 648.2233600000001 61.56Q646.68736 64.248 646.30336 69.56Q645.91936 74.872 645.91936 85.88V89.208H659.61536V91.768H645.91936V141.816Q645.91936 148.088 649.56736 150.2Q653.21536 152.312 659.48736 152.312V155.0Q656.54336 154.872 651.16736 154.68Q645.79136 154.488 639.77536 154.488Q635.42336 154.488 631.13536 154.68Q626.84736 154.872 624.67136 155.0V152.312Q629.91936 152.312 632.15936 150.392Q634.39936 148.472 634.39936 143.096V91.768H624.15936V89.208H634.39936Q634.39936 81.65599999999999 635.03936 76.536Q635.67936 71.416 637.08736 67.768Q638.49536 64.12 640.92736 61.304Q643.48736 58.36 647.4553599999999 56.632Q651.42336 54.903999999999996 656.15936 54.903999999999996Z" fill="#c8a97e"/>
  <path d="M684.6726400000001 67.832V89.208H703.6166400000001V91.768H684.6726400000001V141.304Q684.6726400000001 147.32 686.8486400000002 149.752Q689.0246400000001 152.184 692.86464 152.184Q696.70464 152.184 699.5206400000001 149.048Q702.3366400000001 145.912 704.3846400000001 138.488L706.94464 139.128Q705.6646400000001 146.552 701.8886400000001 151.672Q698.11264 156.792 690.3046400000001 156.792Q685.9526400000001 156.792 683.13664 155.704Q680.32064 154.616 678.1446400000001 152.568Q675.3286400000001 149.624 674.24064 145.528Q673.15264 141.432 673.15264 134.648V91.768H660.86464V89.208H673.15264V69.624Q676.3526400000001 69.496 679.29664 69.112Q682.2406400000001 68.728 684.6726400000001 67.832Z" fill="#c8a97e"/>

</svg>
